<svg xmlns="http://www.w3.org/2000/svg" width="950" height="1250" viewBox="0 0 950 1250">
  <defs>
    <linearGradient id="bg17" x1="0" y1="0" x2="0.6" y2="1">
      <stop offset="0" stop-color="#93586b"/>
      <stop offset="1" stop-color="#ede0e2"/>
    </linearGradient>
    <radialGradient id="soft17" cx="0.4" cy="0.35" r="0.75">
      <stop offset="0" stop-color="#fff" stop-opacity="0.35"/>
      <stop offset="1" stop-color="#000" stop-opacity="0.25"/>
    </radialGradient>
    <radialGradient id="vig17" cx="0.5" cy="0.45" r="0.75">
      <stop offset="0.55" stop-color="#000" stop-opacity="0"/>
      <stop offset="1" stop-color="#000" stop-opacity="0.34"/>
    </radialGradient>
    <filter id="grain17" x="0" y="0" width="100%" height="100%">
      <feTurbulence type="fractalNoise" baseFrequency="0.9" numOctaves="2" stitchTiles="stitch" result="n"/>
      <feColorMatrix in="n" type="matrix" values="0 0 0 0 0  0 0 0 0 0  0 0 0 0 0  0 0 0 0.6 0"/>
    </filter>
  </defs>

  <rect width="950" height="1250" fill="url(#bg17)"/>
  
    <rect x="190" y="200" width="570" height="750" fill="#3f2230" opacity="0.22"/>
    <rect x="247" y="275" width="95" height="150" fill="#3f2230" opacity="0.8"/>
    <rect x="428" y="275" width="95" height="150" fill="#3f2230" opacity="0.8"/>
    <rect x="608" y="275" width="95" height="150" fill="#3f2230" opacity="0.8"/>
    <rect x="247" y="513" width="95" height="150" fill="#3f2230" opacity="0.8"/>
    <rect x="428" y="513" width="95" height="150" fill="#3f2230" opacity="0.8"/>
    <rect x="608" y="513" width="95" height="150" fill="#3f2230" opacity="0.8"/>
    <rect x="247" y="750" width="95" height="150" fill="#3f2230" opacity="0.8"/>
    <rect x="428" y="750" width="95" height="150" fill="#3f2230" opacity="0.8"/>
    <rect x="608" y="750" width="95" height="150" fill="#3f2230" opacity="0.8"/>
  <rect width="950" height="1250" fill="url(#vig17)"/>
  <rect width="950" height="1250" filter="url(#grain17)" opacity="0.12"/>
  <rect x="14" y="14" width="922" height="1222" fill="none" stroke="#ede0e2" stroke-opacity="0.5" stroke-width="2"/>
  <text x="30" y="1216" font-family="ui-monospace, Menlo, monospace" font-size="26" fill="#200f17" opacity="0.6" letter-spacing="3">PLACEHOLDER 17</text>
  <text x="920" y="52" text-anchor="end" font-family="ui-monospace, Menlo, monospace" font-size="24" fill="#200f17" opacity="0.5" letter-spacing="2">INTERIOR</text>
</svg>
